<svg xmlns="http://www.w3.org/2000/svg" viewBox="0 0 250 80.07"><defs><style>.cls-1{fill:#1d1d1b;}.cls-2{fill:#2d2e83;}.cls-3{fill:#36a9e1;}.cls-4{fill:#b2b2b2;}.cls-5{fill:#1d71b8;}</style></defs><title>1</title><g id="Capa_2" data-name="Capa 2"><g id="Capa_1-2" data-name="Capa 1"><path class="cls-1" d="M68.41,70.9a12.26,12.26,0,0,1-9-3.43,11.72,11.72,0,0,1-3.48-8.73A11.75,11.75,0,0,1,59.39,50a12.29,12.29,0,0,1,9-3.42,12.53,12.53,0,0,1,9,3.38A11.64,11.64,0,0,1,81,58.74a11.64,11.64,0,0,1-3.52,8.78A12.53,12.53,0,0,1,68.41,70.9Zm0-5.65a5.81,5.81,0,0,0,4.37-1.83,7.17,7.17,0,0,0,0-9.39,5.84,5.84,0,0,0-4.39-1.81A5.72,5.72,0,0,0,64,54.08a7.1,7.1,0,0,0,0,9.29A5.7,5.7,0,0,0,68.41,65.25Z"/><path class="cls-1" d="M99.25,47H106L96.74,70.51H90.8L81.54,47H88.2l5.55,15.83h0Z"/><path class="cls-1" d="M129,58.5a10.27,10.27,0,0,1-.14,2.27H112.33a6,6,0,0,0,2.17,3.33,6.21,6.21,0,0,0,3.86,1.2A6.86,6.86,0,0,0,124,62.65l4.11,3.81q-3.53,4.44-10.19,4.44a11.66,11.66,0,0,1-12.11-12.21A12,12,0,0,1,109.12,50a11.15,11.15,0,0,1,8.37-3.4,11,11,0,0,1,8.32,3.35A11.89,11.89,0,0,1,129,58.5Zm-11.34-6.37a5.43,5.43,0,0,0-3.38,1.06,5.49,5.49,0,0,0-1.93,3h10.38Q121.69,52.14,117.68,52.13Z"/><path class="cls-1" d="M142.32,61.16h-.06L139,64.87v5.64h-6.32V35H139V56.47H139L147.46,47h7.38l-8.3,9.36L155,70.51h-7Z"/><path class="cls-1" d="M172.74,47H179V70.51h-6V67.67h-.14a8.34,8.34,0,0,1-7,3.23,10.62,10.62,0,0,1-8.08-3.35,12.25,12.25,0,0,1-3.16-8.76A12.45,12.45,0,0,1,157.76,50a10.3,10.3,0,0,1,7.94-3.45,8.47,8.47,0,0,1,6.9,3h.14ZM167,65.25a5.71,5.71,0,0,0,4.25-1.78A6.4,6.4,0,0,0,173,58.84a6.79,6.79,0,0,0-1.69-4.73,5.44,5.44,0,0,0-4.24-1.89A5.81,5.81,0,0,0,162.7,54,6.69,6.69,0,0,0,161,58.84a6.46,6.46,0,0,0,1.69,4.63A5.69,5.69,0,0,0,167,65.25Z"/><path class="cls-1" d="M212.46,46.58q8.29,0,8.3,10.23v13.7h-6.33V58.35c0-4.08-1.36-6.13-4.1-6.13a4.27,4.27,0,0,0-3.45,1.72,7.51,7.51,0,0,0-1.37,4.8V70.51h-6.32V58.35c0-4.08-1.39-6.13-4.15-6.13a4.42,4.42,0,0,0-3.6,1.72,7.45,7.45,0,0,0-1.37,4.8V70.51h-6.33V47h6.33V50.1h0a8.65,8.65,0,0,1,7-3.52q4.92,0,7,3.76h.09A9.83,9.83,0,0,1,212.46,46.58Z"/><path class="cls-1" d="M238.9,46.58A10.31,10.31,0,0,1,246.84,50,12.45,12.45,0,0,1,250,58.79a12.25,12.25,0,0,1-3.16,8.76,10.7,10.7,0,0,1-8.13,3.35,8.68,8.68,0,0,1-7-3h-.1V80.07h-6.32V47h6.32v2.71h.1A9,9,0,0,1,238.9,46.58Zm-1.35,18.67a5.7,5.7,0,0,0,4.37-1.78,6.52,6.52,0,0,0,1.66-4.63A6.72,6.72,0,0,0,241.87,54a6.09,6.09,0,0,0-8.74.08,6.76,6.76,0,0,0-1.71,4.73,6.34,6.34,0,0,0,1.76,4.63A5.9,5.9,0,0,0,237.55,65.25Z"/><rect class="cls-2" x="12.32" y="57.58" width="7.17" height="13.3"/><rect class="cls-3" x="12.32" y="21.78" width="7.17" height="13.3"/><rect class="cls-1" x="43.32" y="21.78" width="7.17" height="49.1"/><rect class="cls-1" x="32.77" y="33.89" width="7.17" height="24.87" transform="translate(82.69 9.97) rotate(90)"/><rect class="cls-4" x="12.32" width="7.17" height="6.32"/><polygon class="cls-4" points="81.46 10.46 0 10.46 0 17.64 92.5 17.64 81.46 10.46"/><rect class="cls-5" x="12.32" y="39.68" width="7.17" height="13.3"/></g></g></svg>